<?xml version="1.0" encoding="UTF-8"?>
<mxfile host="app.diagrams.net">
  <diagram name="Wireframe" id="wireframe123">
    <mxGraphModel dx="1272" dy="772" grid="1" gridSize="10" guides="1" tooltips="1" connect="1" arrows="1" fold="1" page="1" pageScale="1" pageWidth="1000" pageHeight="1600">
      <root>
        <mxCell id="0"/>
        <mxCell id="1" parent="0"/>
        <!-- Header -->
        <mxCell id="2" value="HEADER" style="rounded=0;fillColor=#f5f5f5;strokeColor=#000000" vertex="1" parent="1">
          <mxGeometry x="0" y="0" width="1000" height="80" as="geometry"/>
        </mxCell>
        <!-- Navbar -->
        <mxCell id="3" value="NAVBAR" style="rounded=0;fillColor=#e0e0e0;strokeColor=#000000" vertex="1" parent="1">
          <mxGeometry x="0" y="80" width="1000" height="40" as="geometry"/>
        </mxCell>
        <!-- Sidebar -->
        <mxCell id="4" value="SIDEBAR" style="rounded=0;fillColor=#ffffff;strokeColor=#000000" vertex="1" parent="1">
          <mxGeometry x="0" y="120" width="190" height="400" as="geometry"/>
        </mxCell>
        <!-- Slider -->
        <mxCell id="5" value="IMAGE SLIDER" style="rounded=0;fillColor=#ffffff;strokeColor=#000000" vertex="1" parent="1">
          <mxGeometry x="190" y="120" width="810" height="400" as="geometry"/>
        </mxCell>
        <!-- Featured Items -->
        <mxCell id="6" value="FEATURED ITEMS" style="rounded=0;fillColor=#ffffff;strokeColor=#000000" vertex="1" parent="1">
          <mxGeometry x="0" y="520" width="1000" height="200" as="geometry"/>
        </mxCell>
        <!-- Sale Section 1 -->
        <mxCell id="7" value="SALE SECTION" style="rounded=0;fillColor=#ffeeee;strokeColor=#000000" vertex="1" parent="1">
          <mxGeometry x="0" y="740" width="1000" height="220" as="geometry"/>
        </mxCell>
        <!-- Sale Section 2 -->
        <mxCell id="8" value="SALE SECTION (2)" style="rounded=0;fillColor=#eeeeee;strokeColor=#000000" vertex="1" parent="1">
          <mxGeometry x="0" y="980" width="1000" height="220" as="geometry"/>
        </mxCell>
      </root>
    </mxGraphModel>
  </diagram>
</mxfile>
